<svg
  version="1.1"
  id="Layer_1"
  xmlns="http://www.w3.org/2000/svg"
  xmlns:xlink="http://www.w3.org/1999/xlink"
  x="0px"
  y="0px"
  width="100%"
  viewBox="0 0 511 414"
  enable-background="new 0 0 511 414"
  xml:space="preserve"
>
  <path
    fill="#AAAAAA"
    opacity="1.000000"
    stroke="none"
    d="
M317.000000,415.000000
	C211.333328,415.000000 106.166664,415.000000 1.000000,415.000000
	C1.000000,277.000000 1.000000,139.000000 1.000000,1.000000
	C171.333328,1.000000 341.666656,1.000000 512.000000,1.000000
	C512.000000,139.000000 512.000000,277.000000 512.000000,415.000000
	C447.166656,415.000000 382.333344,415.000000 317.000000,415.000000
M299.500000,384.000397
	C359.556274,384.000397 419.612549,384.000397 479.560242,384.000397
	C479.560242,266.164459 479.560242,149.289948 479.560242,32.391617
	C330.250580,32.391617 181.381409,32.391617 32.351326,32.391617
	C32.351326,149.658371 32.351326,266.532654 32.351326,384.000397
	C121.301270,384.000397 209.900635,384.000397 299.500000,384.000397
z"
  />
  <path
    fill="#FFFFFF"
    opacity="1.000000"
    stroke="none"
    d="
M299.000000,384.000397
	C209.900635,384.000397 121.301270,384.000397 32.351326,384.000397
	C32.351326,266.532654 32.351326,149.658371 32.351326,32.391617
	C181.381409,32.391617 330.250580,32.391617 479.560242,32.391617
	C479.560242,149.289948 479.560242,266.164459 479.560242,384.000397
	C419.612549,384.000397 359.556274,384.000397 299.000000,384.000397
M153.594513,113.090172
	C123.841240,192.446335 94.087967,271.802490 64.210152,351.490814
	C192.164429,351.490814 319.425293,351.490814 447.631897,351.490814
	C415.480316,303.270508 383.855896,255.840866 352.069550,208.168335
	C349.822723,209.761520 348.314453,210.780487 346.859375,211.870422
	C328.987762,225.256989 311.126129,238.656799 293.256866,252.046494
	C287.995300,255.989059 287.983765,255.982895 283.988831,250.989594
	C244.120880,201.158722 204.255447,151.325851 164.383057,101.498543
	C163.171692,99.984734 161.892166,98.525459 159.961258,96.227875
	C157.706726,102.197502 155.787521,107.279236 153.594513,113.090172
M430.478119,74.997650
	C418.714478,65.674507 405.475586,62.147388 390.671356,64.988678
	C366.941101,69.543098 350.179016,91.749596 352.121643,115.980766
	C354.064056,140.208862 374.782593,159.630875 399.058411,159.980331
	C418.770905,160.264099 437.252411,148.174316 444.324249,130.369461
	C452.201813,110.535919 447.255859,90.080322 430.478119,74.997650
z"
  />
  <path
    fill="#AAAAAA"
    opacity="1.000000"
    stroke="none"
    d="
M153.731415,112.725571
	C155.787521,107.279236 157.706726,102.197502 159.961258,96.227875
	C161.892166,98.525459 163.171692,99.984734 164.383057,101.498543
	C204.255447,151.325851 244.120880,201.158722 283.988831,250.989594
	C287.983765,255.982895 287.995300,255.989059 293.256866,252.046494
	C311.126129,238.656799 328.987762,225.256989 346.859375,211.870422
	C348.314453,210.780487 349.822723,209.761520 352.069550,208.168335
	C383.855896,255.840866 415.480316,303.270508 447.631897,351.490814
	C319.425293,351.490814 192.164429,351.490814 64.210152,351.490814
	C94.087967,271.802490 123.841240,192.446335 153.731415,112.725571
z"
  />
  <path
    fill="#AAAAAA"
    opacity="1.000000"
    stroke="none"
    d="
M430.759521,75.214935
	C447.255859,90.080322 452.201813,110.535919 444.324249,130.369461
	C437.252411,148.174316 418.770905,160.264099 399.058411,159.980331
	C374.782593,159.630875 354.064056,140.208862 352.121643,115.980766
	C350.179016,91.749596 366.941101,69.543098 390.671356,64.988678
	C405.475586,62.147388 418.714478,65.674507 430.759521,75.214935
z"
  />
</svg>
